<svg id="b3bdfa9c-8c66-4167-88cc-6e57989c897f" data-name="Layer 1" xmlns="http://www.w3.org/2000/svg" viewBox="0 0 291 423"><defs><style>.a2572225-bea7-4347-869d-8a73c2a2bd57{fill:#d1232a;}.e16a7a6d-d643-479a-b3af-dd07a750452b{fill:#fdfbfa;}.b0e90aad-727d-464d-8fdf-6eb8d2ab2529{fill:#d65347;}</style></defs><path class="a2572225-bea7-4347-869d-8a73c2a2bd57" d="M290.9,368.79v1c-7.29-1.14-13.7-4.79-20.48-7.35-19.61-7.37-39.16-14.9-59.46-20.2-5.54-1.45-11.12-2.93-17.05-2.34.13,2.42,1.64,3.56,2.88,4.84,15.49,16.1,33,29.92,50.17,44.09,13.72,11.31,27.23,23,43.94,29.92v3H.09Q.09,213.16,0,4.59C0,.85.84,0,4.59,0Q145.76.18,286.91,0c3.42,0,4.09.67,4.09,4.09q-.18,136.39-.1,272.78c-1.26.77-2.2-.22-3.19-.67-7.59-3.37-15.08-7-22.77-10.16-33.14-13.52-67-24.72-102.2-31.7-21.91-4.34-43.93-8-66.39-5.45-6.83.77-13.77,1.63-20.46,5.44,12.07,3.83,23.48,7.42,34.86,11.07,47.7,15.29,94.7,32.35,139.57,54.81,14.17,7.09,28.17,14.58,40.58,24.62v2C265.67,316.11,240.22,306,214,298c-18.94-5.76-38-10.94-57.86-12.5-8.84-.7-17.73-1-27.42,2.11a79.56,79.56,0,0,0,14.22,7.73c32.77,15,66.18,28.55,98.45,44.63C258.48,348.52,275.67,357,290.9,368.79Z"/><path class="e16a7a6d-d643-479a-b3af-dd07a750452b" d="M290.9,324.83c-12.41-10-26.41-17.53-40.58-24.62-44.87-22.46-91.87-39.52-139.57-54.81-11.38-3.65-22.79-7.24-34.86-11.07,6.69-3.81,13.63-4.67,20.46-5.44,22.46-2.51,44.48,1.11,66.39,5.45,35.17,7,69.06,18.18,102.2,31.7,7.69,3.14,15.18,6.79,22.77,10.16,1,.45,1.93,1.44,3.19.67Z"/><path class="e16a7a6d-d643-479a-b3af-dd07a750452b" d="M290.9,368.79C275.67,357,258.48,348.52,241.36,340c-32.27-16.08-65.68-29.66-98.45-44.63a79.56,79.56,0,0,1-14.22-7.73c9.69-3.11,18.58-2.81,27.42-2.11C175.94,287.07,195,292.25,214,298c26.25,8,51.7,18.1,76.93,28.81Z"/><path class="e16a7a6d-d643-479a-b3af-dd07a750452b" d="M290.9,418.75c-16.71-6.93-30.22-18.61-43.94-29.92-17.18-14.17-34.68-28-50.17-44.09-1.24-1.28-2.75-2.42-2.88-4.84,5.93-.59,11.51.89,17.05,2.34,20.3,5.3,39.85,12.83,59.46,20.2,6.78,2.56,13.19,6.21,20.48,7.35Z"/><path class="b0e90aad-727d-464d-8fdf-6eb8d2ab2529" d="M.09,421.75H290.9c-1.1,2.09-3,.93-4.48.93q-140.93.1-281.84,0C3.12,422.68,1.2,423.84.09,421.75Z"/></svg>