<?xml version="1.0" encoding="iso-8859-1"?>
<!-- Generator: Adobe Illustrator 17.1.0, SVG Export Plug-In . SVG Version: 6.00 Build 0)  -->
<!DOCTYPE svg PUBLIC "-//W3C//DTD SVG 1.1//EN" "http://www.w3.org/Graphics/SVG/1.1/DTD/svg11.dtd">
<svg  width="16px" height="16px" version="1.1" id="Capa_1" xmlns="http://www.w3.org/2000/svg" xmlns:xlink="http://www.w3.org/1999/xlink" x="0px" y="0px"
	 viewBox="0 0 425.48 425.48" style="enable-background:new 0 0 425.48 425.48;" xml:space="preserve">
<path d="M73.919,159.968c0.031,0,0.062,0,0.093,0c0,0,11.738-0.425,18.91-0.456c5.523-0.023,9.981-4.793,9.957-10.315
	c-0.024-5.509-4.496-10.229-9.999-10.229c-0.015,0-0.029,0-0.044,0c-1.621,0-3.097,0.234-4.47,0.242l13.321-35.614
	c4.568,16.174,12.323,27.372,19.357,34.674c13.184,13.686,30.741,21.25,49.439,21.25s36.255-7.523,49.438-21.209
	c7.033-7.301,14.788-18.436,19.355-34.607l13.319,35.502c-1.374-0.008-2.849-0.239-4.469-0.239c-0.015,0-0.029,0-0.044,0
	c-5.502,0-9.975,4.669-9.999,10.177c-0.023,5.522,4.434,10.129,9.957,10.153c7.172,0.031,18.908,0.67,18.908,0.67
	c0.031,0,0.062,0,0.093,0c3.258,0,6.314-1.797,8.188-4.468c1.891-2.695,2.333-6.254,1.182-9.34l-37.115-99.588
	c-10.552-30.528-40.637-45.579-68.464-46.556c-0.234-0.008-0.468-0.021-0.702-0.013c-27.791,0.977-57.836,15.959-68.423,46.413
	l-37.158,99.642c-1.151,3.086-0.708,6.748,1.182,9.443C67.604,158.172,70.661,159.968,73.919,159.968z M205.517,124.45
	c-9.378,9.736-21.821,15.098-35.034,15.098s-25.656-5.361-35.035-15.098c-12.446-12.921-18.558-32.261-17.672-55.928
	c0.148-3.951,0.676-7.645,1.528-11.093c12.743,5.293,27.481,8.688,42.93,9.855c2.646,0.2,14.132,0.185,16.918-0.033
	c15.296-1.197,29.882-4.578,42.508-9.823c0.852,3.448,1.38,7.142,1.528,11.093C224.074,92.19,217.963,111.529,205.517,124.45z
	 M170.481,19.99c15.95,0.643,32.152,6.931,42.313,19.459c-12.324,4.938-26.963,7.822-42.313,8.236
	c-15.348-0.413-29.986-3.297-42.31-8.235C138.332,26.921,154.532,20.633,170.481,19.99z M367.454,407.449l-10.329-53.54
	c-3.015-15.634-13.054-26.4-25.69-32.821c8.969-8.466,14.583-20.446,14.583-33.725c0-25.585-20.816-46.396-46.402-46.396h-0.322
	c-25.586,0-46.401,20.811-46.401,46.398c0,13.277,5.614,25.258,14.582,33.724c-12.636,6.421-22.675,17.186-25.69,32.819
	l-10.332,53.54c-0.867,4.49,1.424,8.997,5.563,10.943c11.109,5.226,39.538,7.087,62.438,7.087c22.903,0,51.333-1.862,62.439-7.087
	C366.03,416.445,368.32,411.94,367.454,407.449z M272.893,287.363c0-14.558,11.844-26.396,26.401-26.396h0.322
	c14.558,0,26.402,11.838,26.402,26.398c0,14.443-11.659,26.206-26.058,26.391c-0.168-0.001-0.337-0.009-0.505-0.009
	s-0.337,0.009-0.505,0.01C284.551,313.572,272.893,301.81,272.893,287.363z M299.453,405.48c-21.303,0-37.508-1.571-46.624-3.255
	l8.593-44.528c3.157-16.37,21.018-23.685,37.506-23.84c0.122,0.001,0.243,0.111,0.366,0.111h0.322c0.123,0,0.243-0.11,0.366-0.111
	c16.488,0.155,34.348,7.521,37.505,23.892l8.59,44.502C336.964,403.934,320.759,405.48,299.453,405.48z M181.511,222.888
	l15.144-19.03c-7.97-2.432-16.658-3.89-25.728-3.89c-0.025,0-0.05,0-0.075,0h-0.72c-0.022,0-0.048,0-0.07,0
	c-8.284,0-16.799,1.31-24.91,3.695l15.301,19.3c3.447,4.314,2.745,10.607-1.57,14.055c-1.843,1.473-4.047,2.188-6.236,2.188
	c-2.936,0-5.844-1.286-7.819-3.758L126.3,212.259c-12.416,7.906-21.923,19.859-24.968,36.298L79.875,363.968h116.994
	c5.523,0,10,4.478,10,10s-4.477,10-10,10H67.844c-2.972,0-5.791-1.359-7.69-3.645c-1.9-2.286-2.685-5.335-2.141-8.258
	l23.655-127.308c8.272-44.656,50.338-64.79,88.386-64.79c0.03,0,0.055,0,0.085,0h0.705c0.029,0,0.06,0,0.089,0
	c34.304,0,64.741,15.666,79.443,40.658c2.8,4.76,1.211,11.04-3.549,13.84s-10.889,1.211-13.689-3.549
	c-4.247-7.22-10.353-13.391-17.789-18.266l-18.213,22.796c-1.975,2.472-4.884,3.758-7.819,3.758c-2.189,0-4.393-0.715-6.235-2.188
	C178.766,233.57,178.063,227.203,181.511,222.888z"/>
<g>
</g>
<g>
</g>
<g>
</g>
<g>
</g>
<g>
</g>
<g>
</g>
<g>
</g>
<g>
</g>
<g>
</g>
<g>
</g>
<g>
</g>
<g>
</g>
<g>
</g>
<g>
</g>
<g>
</g>
</svg>
