<?xml version="1.0" standalone="no"?>
<!DOCTYPE svg PUBLIC "-//W3C//DTD SVG 20010904//EN"
 "http://www.w3.org/TR/2001/REC-SVG-20010904/DTD/svg10.dtd">
<svg version="1.0" xmlns="http://www.w3.org/2000/svg"
 width="14px" height="14px" viewBox="0 0 1188.000000 1280.000000"
 preserveAspectRatio="xMidYMid meet">
<metadata>
Created by potrace 1.15, written by Peter Selinger 2001-2017
</metadata>
<g transform="translate(0.000000,1280.000000) scale(0.100000,-0.100000)"
fill="#000000" stroke="none">
<path d="M4029 12784 c-100 -18 -309 -91 -391 -137 -205 -114 -372 -306 -464
-530 -96 -238 -115 -484 -54 -722 27 -107 106 -264 176 -351 l56 -71 4 -274
c2 -151 9 -960 14 -1799 10 -1508 29 -3392 35 -3398 2 -2 261 1 577 7 1484 28
1920 33 2543 28 369 -3 740 -10 825 -17 178 -13 339 -34 350 -47 4 -4 61 -120
128 -258 66 -137 214 -446 330 -685 115 -239 293 -608 395 -820 610 -1271
1165 -2401 1191 -2428 22 -23 301 89 1181 470 479 208 805 344 908 377 48 16
51 31 44 200 -14 312 -85 553 -181 619 -69 47 -162 24 -494 -127 -426 -193
-630 -262 -894 -304 l-86 -14 -213 436 c-221 454 -382 789 -874 1821 -161 338
-399 836 -529 1105 l-236 490 -1974 3 c-1870 2 -1975 3 -1980 20 -32 106 -56
279 -56 413 0 170 19 283 77 446 l25 73 1447 2 1446 3 0 475 0 475 -1235 0
c-1072 0 -1267 3 -1474 18 -132 9 -241 18 -242 20 -2 1 -8 128 -15 282 -8 187
-10 545 -7 1078 l5 797 40 48 c59 70 149 142 354 284 294 204 406 314 479 473
53 114 62 173 63 412 1 201 0 211 -26 298 -16 50 -48 131 -73 180 -216 437
-739 712 -1195 629z"/>
<path d="M2310 8124 c-268 -142 -549 -334 -795 -542 -130 -110 -407 -389 -514
-517 -467 -561 -768 -1170 -905 -1837 -57 -273 -91 -650 -91 -988 0 -258 11
-394 50 -628 113 -669 401 -1317 833 -1872 255 -327 610 -660 962 -902 556
-383 1263 -644 2100 -777 317 -50 388 -56 665 -55 339 0 596 28 906 99 834
191 1606 622 2224 1240 88 88 202 210 252 270 51 61 121 135 156 167 210 187
221 506 32 889 -84 170 -239 386 -309 432 -23 16 -24 15 -76 -67 -74 -120
-191 -286 -297 -423 -688 -890 -1526 -1440 -2463 -1617 -338 -64 -738 -62
-1105 4 -639 116 -1287 453 -1769 920 -280 272 -479 540 -658 886 -189 366
-292 694 -350 1114 -20 149 -17 682 5 840 77 542 263 1024 553 1430 169 238
375 453 563 589 144 104 188 146 221 211 19 38 21 63 25 480 6 478 2 528 -48
626 -46 91 -47 91 -167 28z"/>
</g>
</svg>
